# xmcd CD database file
#
# Track frame offsets:
#	150
#	11053
#	26028
#	43448
#	56995
#	71225
#	85560
#	100013
#	114640
#	126525
#	139088
#	152018
#	165070
#	178645
#	193150
#	206918
#	221885
#	234513
#	250095
#	262278
#
# Disc length: 3680 seconds
#
# Revision: 0
# Processed by: cddbd v1.5.1PL0 Copyright (c) Steve Scherf et al.
# Submitted via: CDex 1.60beta1
#
DISCID=320e5e14
DTITLE=Various Artist - Boogie Woogie Beat
DYEAR=1997
DGENRE=Jazz
TTITLE0=Albert Ammons - Shout for Joy
TTITLE1=Meade "Lux" Lewis - Yancey Special
TTITLE2=Jimmy Yancey - Midnight Stomp
TTITLE3=Pete Johnson - Basement Boogie
TTITLE4=Charles "Cow Cow" Davenport - Cow Cow Blues
TTITLE5=Pinetop Smith - Pinetop's Boogie Woogie
TTITLE6=Speckled Red - The Dirty Dozen
TTITLE7=Clarence Lofton - I Don't Know
TTITLE8=Jay McShann - Vine Street Boogie
TTITLE9=Earl Hines - Boogie Woogie on St. Louis Blues
TTITLE10=Jimmy Yancey - Yancey Stomp
TTITLE11=Meade "Lux" Lewis - Honky Tonk Train Blues
TTITLE12=Albert Ammons - Boogie Woogie Stomp
TTITLE13=Pete Johnson - Blues on the Down Beat
TTITLE14=Charles "Cow Cow" Davenport - State Street Jive
TTITLE15=Pinetop Smith - Jump Steady Blues
TTITLE16=Speckled Red - Wilkins Street Stomp
TTITLE17=Montana Taylor - Indiana Avenue Stomp
TTITLE18=Jay McShann - Hold 'Em Hootie
TTITLE19=Count Basie - Boogie Woogie
EXTD=YEAR: 1997
EXTT0=
EXTT1=
EXTT2=
EXTT3=
EXTT4=
EXTT5=
EXTT6=
EXTT7=
EXTT8=
EXTT9=
EXTT10=
EXTT11=
EXTT12=
EXTT13=
EXTT14=
EXTT15=
EXTT16=
EXTT17=
EXTT18=
EXTT19=
PLAYORDER=
